<svg id="a39ffd18-92ec-4866-9a21-1e5eb26c7388" data-name="Calque 1" xmlns="http://www.w3.org/2000/svg" viewBox="0 0 195.57 33.44"><path d="M13.93,8q4.91,0,7.2,2a6.45,6.45,0,0,1,2.34,5.18,11,11,0,0,1-.29,2.41,12.16,12.16,0,0,1-2.55,5.19A13,13,0,0,1,16,26.14a14.45,14.45,0,0,1-5.87,1.18c-3.33,0-5.81-.66-7.41-2A6.62,6.62,0,0,1,.36,20a12.3,12.3,0,0,1,.29-2.49,11.48,11.48,0,0,1,2.59-5A13.15,13.15,0,0,1,8,9.18,14.69,14.69,0,0,1,13.93,8Zm-.11,3.2c-.5,0-1,.46-1.62,1.37a25,25,0,0,0-2,5.07,21.71,21.71,0,0,0-1.15,5.26,1.74,1.74,0,0,0,.25,1.08.93.93,0,0,0,.69.25c.5,0,1-.38,1.55-1.29a28.34,28.34,0,0,0,2-5.33,19.23,19.23,0,0,0,1.11-5.08,1.6,1.6,0,0,0-.25-1A.76.76,0,0,0,13.82,11.16Z" transform="translate(-0.36 -0.4)" style="fill:#fff"/><path d="M45,22a1,1,0,0,0-.07.43.61.61,0,0,0,.11.4.45.45,0,0,0,.36.14.91.91,0,0,0,.72-.36c.21-.26.36-.39.43-.39s.21.08.29.25a1.21,1.21,0,0,1,.1.54,3.24,3.24,0,0,1-.68,2.05,5.36,5.36,0,0,1-2.12,1.62,8.1,8.1,0,0,1-3.32.61A6.06,6.06,0,0,1,37,26.24a3.7,3.7,0,0,1-1.44-2.95,8.38,8.38,0,0,1,.65-3l2-5.18a2.2,2.2,0,0,0,.18-.76.88.88,0,0,0-.32-.72,1,1,0,0,0-.72-.28A2.14,2.14,0,0,0,36,14a4.48,4.48,0,0,0-1.11,2V16l-2.27,7.31a3.23,3.23,0,0,0-.11.75,1.43,1.43,0,0,0,.18.76,2.43,2.43,0,0,0,.51.5,3.54,3.54,0,0,1,.36.43.45.45,0,0,1,0,.4,1.19,1.19,0,0,1-.72.68,4.56,4.56,0,0,1-1.65.22H23a2.54,2.54,0,0,1-1.37-.29.72.72,0,0,1-.29-.83,1.45,1.45,0,0,1,.76-.75,3.16,3.16,0,0,0,.9-.69,3.2,3.2,0,0,0,.61-1.26L29,5.22a1.9,1.9,0,0,0,.11-.54A1,1,0,0,0,28.93,4a2.36,2.36,0,0,0-.5-.5A3.41,3.41,0,0,1,27.89,3a.64.64,0,0,1,0-.57c.15-.55.9-1,2.27-1.44A14.88,14.88,0,0,1,34.41.4a4.81,4.81,0,0,1,3.06.79,2.6,2.6,0,0,1,1,2.16,4.84,4.84,0,0,1-.25,1.55l-1.94,6.33a8.18,8.18,0,0,1,2.95-2.55A8.19,8.19,0,0,1,42.65,8a4.77,4.77,0,0,1,3.53,1.33,4.62,4.62,0,0,1,1.37,3.45,6.9,6.9,0,0,1-.36,2.2Z" transform="translate(-0.36 -0.4)" style="fill:#fff"/><path d="M82.72,22a1,1,0,0,0-.08.43.68.68,0,0,0,.11.4.48.48,0,0,0,.36.14.88.88,0,0,0,.72-.36c.22-.26.36-.39.43-.39s.22.08.29.25a1.2,1.2,0,0,1,.11.54A3.3,3.3,0,0,1,84,25.09a5.33,5.33,0,0,1-2.13,1.62,8,8,0,0,1-3.31.61,6.06,6.06,0,0,1-3.78-1.08,3.64,3.64,0,0,1-1.44-2.95,8.38,8.38,0,0,1,.65-3l2-5.18a2.2,2.2,0,0,0,.18-.76.86.86,0,0,0-.33-.72,1,1,0,0,0-.72-.28,2,2,0,0,0-1.26.54,4.57,4.57,0,0,0-1.15,1.69l-2,6.44a1,1,0,0,0-.07.43.68.68,0,0,0,.11.4.45.45,0,0,0,.36.14.88.88,0,0,0,.72-.36c.21-.26.36-.39.43-.39s.22.08.29.25a1.2,1.2,0,0,1,.11.54A3.31,3.31,0,0,1,72,25.09a5.36,5.36,0,0,1-2.12,1.62,8.05,8.05,0,0,1-3.31.61,6,6,0,0,1-3.78-1.08,3.64,3.64,0,0,1-1.44-2.95,8.35,8.35,0,0,1,.64-3l2-5.18a2.2,2.2,0,0,0,.18-.76.85.85,0,0,0-.32-.72,1,1,0,0,0-.72-.28,2,2,0,0,0-1.26.54,3.64,3.64,0,0,0-1.08,1.65l-2.38,7.71a2.3,2.3,0,0,0-.14.75,1.33,1.33,0,0,0,.18.72,3.43,3.43,0,0,0,.5.54,1.76,1.76,0,0,1,.36.4.49.49,0,0,1,0,.43,1.07,1.07,0,0,1-.68.68,4.76,4.76,0,0,1-1.7.22H48.7a2.38,2.38,0,0,1-1.34-.29.78.78,0,0,1-.32-.83,1.45,1.45,0,0,1,.76-.75,3.16,3.16,0,0,0,.9-.69,3.2,3.2,0,0,0,.61-1.26l3.2-10.4a1.36,1.36,0,0,0,.07-.5,1,1,0,0,0-.18-.62,3.16,3.16,0,0,0-.5-.54,2.32,2.32,0,0,1-.5-.5.66.66,0,0,1,0-.58c.14-.55.9-1,2.27-1.44A14.17,14.17,0,0,1,57.91,8a3.8,3.8,0,0,1,2.77,1,3.32,3.32,0,0,1,1,2.66,8.72,8.72,0,0,1,3.1-2.84A8.1,8.1,0,0,1,68.35,8a4.74,4.74,0,0,1,3.39,1.22,4.47,4.47,0,0,1,1.47,3.13,9.31,9.31,0,0,1,3.31-3.38,7.85,7.85,0,0,1,3.86-1A4.73,4.73,0,0,1,83.9,9.29a4.58,4.58,0,0,1,1.37,3.45,6.9,6.9,0,0,1-.36,2.2Z" transform="translate(-0.36 -0.4)" style="fill:#fff"/><path d="M104.93,8a3,3,0,0,1,2.52,1.29,5.52,5.52,0,0,1,1,3.46,13.67,13.67,0,0,1-.68,4.1,26.71,26.71,0,0,1-4.28,8.35,24.47,24.47,0,0,1-6.74,6.3,14.06,14.06,0,0,1-7.56,2.38,7.58,7.58,0,0,1-3.24-.65,4.77,4.77,0,0,1-2-1.73,4.06,4.06,0,0,1-.72-2.3A4.47,4.47,0,0,1,83.37,28a2.89,2.89,0,0,1,1.08-1.55,3,3,0,0,1,1.8-.54A3.56,3.56,0,0,1,89,27a5.69,5.69,0,0,1,1.37,3.13,6.44,6.44,0,0,0,4.24-2,5,5,0,0,1-2.73-1.22,5.58,5.58,0,0,1-1.19-2.88L89.2,15.23a2,2,0,0,0-.32-.94.57.57,0,0,0-.51-.29,1.14,1.14,0,0,0-.61.26,1.06,1.06,0,0,1-.47.25c-.19,0-.29-.21-.29-.61a3.59,3.59,0,0,1,.18-1.08A7.13,7.13,0,0,1,89.6,9.36a6.28,6.28,0,0,1,4.1-1.44,4,4,0,0,1,3.38,1.37,8,8,0,0,1,1.44,4.21l1.08,7.92c.08.6.29.9.65.9s.94-.38,1.51-1.15a14.94,14.94,0,0,0,1.7-3.35,6.74,6.74,0,0,1-1.66-2.23,6.48,6.48,0,0,1-.58-2.7,6.66,6.66,0,0,1,.29-2,4.24,4.24,0,0,1,1.33-2.16A3.27,3.27,0,0,1,104.93,8Z" transform="translate(-0.36 -0.4)" style="fill:#fff"/><path d="M122.86.4a11.11,11.11,0,0,1,5.76,1.18,3.33,3.33,0,0,1,1.95,2.85,2.41,2.41,0,0,1-1.15,2.12,5.4,5.4,0,0,1-3,.72,3.78,3.78,0,0,1-2.62-.83,2.6,2.6,0,0,1-.94-2.05,3.24,3.24,0,0,1,.47-1.58,2.92,2.92,0,0,0-1.8.54,3.26,3.26,0,0,0-1.12,1.76,5.8,5.8,0,0,0-.21,1.48A2.82,2.82,0,0,0,120.52,8a1,1,0,0,0,.9.46h2.13c1.25,0,1.87.39,1.87,1.16a1.84,1.84,0,0,1-.07.43,2,2,0,0,1-.9,1.19,3.93,3.93,0,0,1-2,.39h-1.08l-3.57,11.67a3.17,3.17,0,0,0-.1.75,1.43,1.43,0,0,0,.18.76,2.36,2.36,0,0,0,.5.5,2.32,2.32,0,0,1,.36.43.48.48,0,0,1,0,.4,1.19,1.19,0,0,1-.72.68,4.62,4.62,0,0,1-1.66.22h-8.21a2.56,2.56,0,0,1-1.37-.29.71.71,0,0,1-.28-.83,1.39,1.39,0,0,1,.75-.75,3.16,3.16,0,0,0,.9-.69,3.07,3.07,0,0,0,.61-1.26L111.63,14a3.5,3.5,0,0,0,.18-1.12,1.73,1.73,0,0,0-.32-1.11,4.51,4.51,0,0,0-.9-.94c-.27-.22-.47-.4-.61-.54a1,1,0,0,1-.18-.58,1,1,0,0,1,.46-1,4.85,4.85,0,0,1,2-.29h.9a6.57,6.57,0,0,1-.25-1.8,6.07,6.07,0,0,1,.32-1.87,6.12,6.12,0,0,1,2.92-3.09A14.09,14.09,0,0,1,122.86.4Z" transform="translate(-0.36 -0.4)" style="fill:#fff"/><path d="M137.08,8q4.9,0,7.2,2a6.45,6.45,0,0,1,2.34,5.18,11.59,11.59,0,0,1-.28,2.41,12.29,12.29,0,0,1-2.56,5.19,12.94,12.94,0,0,1-4.61,3.42,14.42,14.42,0,0,1-5.87,1.18q-5,0-7.41-2A6.62,6.62,0,0,1,123.51,20a12.3,12.3,0,0,1,.29-2.49,11.59,11.59,0,0,1,2.59-5,13.15,13.15,0,0,1,4.72-3.38A14.69,14.69,0,0,1,137.08,8Zm-.1,3.2c-.51,0-1,.46-1.62,1.37a23.88,23.88,0,0,0-2,5.07,21.38,21.38,0,0,0-1.16,5.26,1.66,1.66,0,0,0,.26,1.08.89.89,0,0,0,.68.25c.5,0,1-.38,1.55-1.29a28.34,28.34,0,0,0,2-5.33,19.35,19.35,0,0,0,1.12-5.08,1.59,1.59,0,0,0-.26-1A.75.75,0,0,0,137,11.16Z" transform="translate(-0.36 -0.4)" style="fill:#fff"/><path d="M160.71,8q4.89,0,7.2,2a6.45,6.45,0,0,1,2.34,5.18,11.66,11.66,0,0,1-.29,2.41,12.18,12.18,0,0,1-2.56,5.19,12.9,12.9,0,0,1-4.6,3.42,14.45,14.45,0,0,1-5.87,1.18q-5,0-7.42-2A6.64,6.64,0,0,1,147.14,20a11.63,11.63,0,0,1,.29-2.49,11.38,11.38,0,0,1,2.59-5,13,13,0,0,1,4.71-3.38A14.74,14.74,0,0,1,160.71,8Zm-.11,3.2c-.5,0-1,.46-1.62,1.37a25,25,0,0,0-2,5.07,21.22,21.22,0,0,0-1.15,5.26,1.67,1.67,0,0,0,.25,1.08.93.93,0,0,0,.69.25c.5,0,1-.38,1.54-1.29a27.64,27.64,0,0,0,2-5.33,18.94,18.94,0,0,0,1.12-5.08,1.6,1.6,0,0,0-.25-1A.77.77,0,0,0,160.6,11.16Z" transform="translate(-0.36 -0.4)" style="fill:#fff"/><path d="M190.53,21.82a2,2,0,0,0-.08.39.54.54,0,0,0,.15.4.49.49,0,0,0,.36.14.88.88,0,0,0,.72-.36c.21-.26.36-.39.43-.39s.22.08.29.25a1.48,1.48,0,0,1,.11.57,3,3,0,0,1-.76,2,5.58,5.58,0,0,1-2.05,1.66,6.24,6.24,0,0,1-2.81.65,6.72,6.72,0,0,1-3.13-.69,3.79,3.79,0,0,1-1.84-1.8,6.36,6.36,0,0,1-2.23,1.88,6.16,6.16,0,0,1-5.76-.22,6.23,6.23,0,0,1-2.27-2.34,7.31,7.31,0,0,1-.83-3.49,15.51,15.51,0,0,1,1.23-6.16,11.82,11.82,0,0,1,3.49-4.68,7.87,7.87,0,0,1,5.08-1.8,8.33,8.33,0,0,1,2.62.36,6.25,6.25,0,0,1,2,1.08l1.22-4a1.61,1.61,0,0,0,.11-.54,1,1,0,0,0-.21-.65,2.43,2.43,0,0,0-.51-.5,3.41,3.41,0,0,1-.54-.51.65.65,0,0,1,0-.57c.14-.55.9-1,2.26-1.44A14.88,14.88,0,0,1,191.86.4a4.81,4.81,0,0,1,3.06.79,2.61,2.61,0,0,1,1,2.16,4.85,4.85,0,0,1-.26,1.55Zm-6-10.12a1.84,1.84,0,0,0-1.26-.5c-.69,0-1.38.51-2.05,1.54a13.63,13.63,0,0,0-1.62,3.75,13.51,13.51,0,0,0-.57,4q0,2,1.29,2a1,1,0,0,0,.79-.36,4.32,4.32,0,0,0,.62-1.26Z" transform="translate(-0.36 -0.4)" style="fill:#fff"/></svg>